{
	"asset":{
		"generator":"Khronos glTF Blender I/O v3.6.27",
		"version":"2.0"
	},
	"scene":0,
	"scenes":[
		{
			"name":"Scene",
			"nodes":[
				0
			]
		}
	],
	"nodes":[
		{
			"mesh":0,
			"name":"Plane"
		}
	],
	"meshes":[
		{
			"name":"Plane",
			"primitives":[
				{
					"attributes":{
						"POSITION":0,
						"NORMAL":1
					},
					"indices":2
				}
			]
		}
	],
	"accessors":[
		{
			"bufferView":0,
			"componentType":5126,
			"count":3280,
			"max":[
				5,
				5.949999809265137,
				5
			],
			"min":[
				-5,
				-0.10000000149011612,
				-5
			],
			"type":"VEC3"
		},
		{
			"bufferView":1,
			"componentType":5126,
			"count":3280,
			"type":"VEC3"
		},
		{
			"bufferView":2,
			"componentType":5123,
			"count":16920,
			"type":"SCALAR"
		}
	],
	"bufferViews":[
		{
			"buffer":0,
			"byteLength":39360,
			"byteOffset":0,
			"target":34962
		},
		{
			"buffer":0,
			"byteLength":39360,
			"byteOffset":39360,
			"target":34962
		},
		{
			"buffer":0,
			"byteLength":33840,
			"byteOffset":78720,
			"target":34963
		}
	],
	"buffers":[
		{
			"byteLength":112560,
			"uri":"sample_model.bin"
		}
	]
}
