{
    "asset" : {
        "generator" : "Khronos glTF Blender I/O v1.8.19",
        "version" : "2.0"
    },
    "scene" : 0,
    "scenes" : [
        {
            "name" : "Scene",
            "nodes" : [
                1,
                2
            ]
        }
    ],
    "nodes" : [
        {
            "name" : "Geode"
        },
        {
            "children" : [
                0
            ],
            "name" : "Sketchfab_model",
            "rotation" : [
                -0.7071068286895752,
                0,
                0,
                0.7071068286895752
            ]
        },
        {
            "mesh" : 0,
            "name" : "Suzanne"
        }
    ],
    "meshes" : [
        {
            "name" : "Suzanne",
            "primitives" : [
                {
                    "attributes" : {
                        "POSITION" : 0,
                        "NORMAL" : 1
                    },
                    "indices" : 2
                }
            ]
        }
    ],
    "accessors" : [
        {
            "bufferView" : 0,
            "componentType" : 5126,
            "count" : 126290,
            "max" : [
                6.32890510559082,
                0.8711580038070679,
                -4.503962993621826
            ],
            "min" : [
                3.6710963249206543,
                -1.0399672985076904,
                -6.104865074157715
            ],
            "type" : "VEC3"
        },
        {
            "bufferView" : 1,
            "componentType" : 5126,
            "count" : 126290,
            "type" : "VEC3"
        },
        {
            "bufferView" : 2,
            "componentType" : 5125,
            "count" : 755712,
            "type" : "SCALAR"
        }
    ],
    "bufferViews" : [
        {
            "buffer" : 0,
            "byteLength" : 1515480,
            "byteOffset" : 0
        },
        {
            "buffer" : 0,
            "byteLength" : 1515480,
            "byteOffset" : 1515480
        },
        {
            "buffer" : 0,
            "byteLength" : 3022848,
            "byteOffset" : 3030960
        }
    ],
    "buffers" : [
        {
            "byteLength" : 6053808,
            "uri" : "suzanne_moved.bin"
        }
    ]
}
